<svg width="34" height="32" viewBox="0 0 34 32" fill="none" xmlns="http://www.w3.org/2000/svg">
<g clip-path="url(#clip0_541_677)">
<path d="M17.1768 32C13.9347 32 10.7655 31.0616 8.06976 29.3035C5.37407 27.5454 3.27303 25.0466 2.03234 22.1229C0.791648 19.1993 0.467027 15.9823 1.09953 12.8786C1.73202 9.77487 3.29324 6.92394 5.58573 4.6863C7.87823 2.44866 10.7991 0.924806 13.9788 0.307443C17.1586 -0.309921 20.4546 0.00693258 23.4499 1.21793C26.4452 2.42894 29.0053 4.4797 30.8065 7.11088C32.6077 9.74207 33.5691 12.8355 33.5691 16C33.5644 20.2421 31.8358 24.3091 28.7627 27.3087C25.6896 30.3082 21.5229 31.9954 17.1768 32ZM17.1768 4.00001C14.7452 4.00001 12.3683 4.70379 10.3465 6.02237C8.32475 7.34095 6.74898 9.21509 5.81846 11.4078C4.88794 13.6005 4.64447 16.0133 5.11885 18.3411C5.59322 20.6689 6.76413 22.8071 8.4835 24.4853C10.2029 26.1635 12.3935 27.3064 14.7783 27.7694C17.1632 28.2325 19.6351 27.9948 21.8816 27.0866C24.1281 26.1783 26.0482 24.6402 27.3991 22.6669C28.75 20.6935 29.471 18.3734 29.471 16C29.467 12.8186 28.1705 9.76861 25.8657 7.51901C23.561 5.26942 20.4362 4.00389 17.1768 4.00001Z" fill="#02569D"/>
<path d="M20.5306 24.909H16.4326V16.7263H14.5693V12.7263H17.1771C18.0663 12.727 18.9188 13.0721 19.5476 13.6858C20.1764 14.2995 20.5299 15.1317 20.5306 15.9996V24.909Z" fill="#02569D"/>
<path d="M17.5647 11.2884C18.8593 11.2884 19.9088 10.264 19.9088 9.0004C19.9088 7.73677 18.8593 6.7124 17.5647 6.7124C16.2701 6.7124 15.2206 7.73677 15.2206 9.0004C15.2206 10.264 16.2701 11.2884 17.5647 11.2884Z" fill="#02569D"/>
</g>
<defs>
<clipPath id="clip0_541_677">
<rect width="32.7845" height="32" fill="white" transform="translate(0.784546)"/>
</clipPath>
</defs>
</svg>
