<svg width="60" height="83" viewBox="0 0 60 83" fill="none" xmlns="http://www.w3.org/2000/svg">
<rect width="60" height="60" rx="30" fill="#02569D"/>
<circle cx="30" cy="30" r="6" fill="white"/>
<path d="M11.4277 79V69.0059H13.0615V77.5986H17.293V79H11.4277ZM20.4512 79H18.8447V71.4395H20.4512V79ZM18.749 69.4365C18.749 69.1494 18.8265 68.9284 18.9814 68.7734C19.141 68.6185 19.3665 68.541 19.6582 68.541C19.9408 68.541 20.1595 68.6185 20.3145 68.7734C20.474 68.9284 20.5537 69.1494 20.5537 69.4365C20.5537 69.71 20.474 69.9264 20.3145 70.0859C20.1595 70.2409 19.9408 70.3184 19.6582 70.3184C19.3665 70.3184 19.141 70.2409 18.9814 70.0859C18.8265 69.9264 18.749 69.71 18.749 69.4365ZM27.834 76.8467C27.834 77.585 27.5651 78.1523 27.0273 78.5488C26.4896 78.9408 25.7194 79.1367 24.7168 79.1367C23.7096 79.1367 22.9007 78.984 22.29 78.6787V77.291C23.1787 77.7012 24.0059 77.9062 24.7715 77.9062C25.7604 77.9062 26.2549 77.6077 26.2549 77.0107C26.2549 76.8193 26.2002 76.6598 26.0908 76.5322C25.9814 76.4046 25.8014 76.2725 25.5508 76.1357C25.3001 75.999 24.9515 75.8441 24.5049 75.6709C23.6344 75.3337 23.0443 74.9964 22.7344 74.6592C22.429 74.3219 22.2764 73.8844 22.2764 73.3467C22.2764 72.6995 22.5361 72.1982 23.0557 71.8428C23.5798 71.4827 24.2907 71.3027 25.1885 71.3027C26.0771 71.3027 26.918 71.4827 27.7109 71.8428L27.1914 73.0527C26.3757 72.7155 25.6898 72.5469 25.1338 72.5469C24.2861 72.5469 23.8623 72.7884 23.8623 73.2715C23.8623 73.5085 23.9717 73.709 24.1904 73.873C24.4137 74.0371 24.8968 74.2627 25.6396 74.5498C26.264 74.7913 26.7174 75.0124 27 75.2129C27.2826 75.4134 27.4922 75.6458 27.6289 75.9102C27.7656 76.1699 27.834 76.4821 27.834 76.8467ZM32.3936 77.8379C32.7855 77.8379 33.1774 77.7764 33.5693 77.6533V78.8633C33.3916 78.9408 33.1615 79.0046 32.8789 79.0547C32.6009 79.1094 32.3115 79.1367 32.0107 79.1367C30.4886 79.1367 29.7275 78.3346 29.7275 76.7305V72.6562H28.6953V71.9453L29.8027 71.3574L30.3496 69.7578H31.3408V71.4395H33.4941V72.6562H31.3408V76.7031C31.3408 77.0905 31.4365 77.3776 31.6279 77.5645C31.8239 77.7467 32.0791 77.8379 32.3936 77.8379ZM38.3887 79.1367C37.2129 79.1367 36.2923 78.7949 35.627 78.1113C34.9661 77.4232 34.6357 76.4775 34.6357 75.2744C34.6357 74.0394 34.9434 73.0687 35.5586 72.3623C36.1738 71.6559 37.0192 71.3027 38.0947 71.3027C39.0928 71.3027 39.8812 71.6058 40.46 72.2119C41.0387 72.818 41.3281 73.652 41.3281 74.7139V75.582H36.29C36.3128 76.3158 36.5111 76.8809 36.8848 77.2773C37.2585 77.6693 37.7848 77.8652 38.4639 77.8652C38.9105 77.8652 39.3252 77.8242 39.708 77.7422C40.0954 77.6556 40.5101 77.5143 40.9521 77.3184V78.624C40.5602 78.8109 40.1637 78.943 39.7627 79.0205C39.3617 79.098 38.9036 79.1367 38.3887 79.1367ZM38.0947 72.5195C37.5843 72.5195 37.1742 72.6813 36.8643 73.0049C36.5589 73.3285 36.3766 73.8001 36.3174 74.4199H39.749C39.7399 73.7956 39.5895 73.3239 39.2979 73.0049C39.0062 72.6813 38.6051 72.5195 38.0947 72.5195ZM49.8047 79H48.1914V74.3516C48.1914 73.7682 48.0729 73.333 47.8359 73.0459C47.6035 72.7588 47.2321 72.6152 46.7217 72.6152C46.0426 72.6152 45.5459 72.8158 45.2314 73.2168C44.917 73.6178 44.7598 74.29 44.7598 75.2334V79H43.1533V71.4395H44.4111L44.6367 72.4307H44.7188C44.9466 72.0706 45.2702 71.7926 45.6895 71.5967C46.1087 71.4007 46.5736 71.3027 47.084 71.3027C48.8978 71.3027 49.8047 72.2256 49.8047 74.0713V79Z" fill="black"/>
</svg>
