<svg width="256" height="46" viewBox="0 0 256 46" fill="none" xmlns="http://www.w3.org/2000/svg">
<g clip-path="url(#clip0_16_5)">
<path d="M41.6196 31.1918C36.6724 31.1918 34.238 27.411 32.3534 24.4178C30.4687 21.5034 29.5264 20.1644 27.7202 20.1644C25.9141 20.1644 24.9718 21.4247 23.0871 24.4178C21.2025 27.411 18.8466 31.1918 13.8209 31.1918C8.79509 31.1918 6.51779 27.411 4.63313 24.4178C2.74847 21.5034 1.80614 20.1644 0 20.1644V14.6507C4.94724 14.6507 7.3816 18.4315 9.26626 21.4247C11.1509 24.3391 12.0933 25.6781 13.8994 25.6781C15.7055 25.6781 16.6479 24.4178 18.5325 21.4247C20.4172 18.4315 22.773 14.6507 27.7988 14.6507C32.746 14.6507 35.1804 18.4315 37.065 21.4247C38.9497 24.3391 39.892 25.6781 41.6982 25.6781C43.5043 25.6781 44.4466 24.4178 46.3313 21.4247C48.216 18.4315 50.5718 14.6507 55.5975 14.6507V20.1644C53.7914 20.1644 52.8491 21.4247 50.9644 24.4178C49.0012 27.411 46.6454 31.1918 41.6196 31.1918Z" fill="#02569D"/>
<path d="M70.5178 6.30138V1.33905H80.2552V6.30138H70.5178ZM73.6589 35.839V1.33905H80.1767V35.839H73.6589Z" fill="#02569D"/>
<path d="M93.8405 36.5479C91.9558 36.5479 90.3853 36.2329 88.9718 35.524C87.5583 34.8151 86.4589 33.9486 85.7521 32.6884C84.9669 31.4281 84.5742 30.0103 84.5742 28.2774C84.5742 26.387 85.0454 24.8116 85.9877 23.6301C86.93 22.4486 88.1865 21.5034 89.9141 20.9521C91.5632 20.3219 93.5264 20.0856 95.8037 20.0856H101.772V24.024H95.7251C94.2331 24.024 93.0552 24.4178 92.2699 25.1267C91.4847 25.8356 91.092 26.8596 91.092 27.9623C91.092 29.1438 91.4847 30.089 92.2699 30.7979C93.0552 31.5068 94.2331 31.9007 95.7251 31.9007C96.6675 31.9007 97.4527 31.7431 98.238 31.4281C99.0233 31.113 99.6515 30.5616 100.201 29.6952C100.751 28.9075 100.986 27.8048 101.065 26.387L102.636 28.1986C102.479 30.0103 102.007 31.5068 101.379 32.7671C100.672 34.0274 99.7301 34.9726 98.4736 35.6027C97.2172 36.2329 95.5681 36.5479 93.8405 36.5479ZM102.086 35.839V28.1986H100.986V19.7705C100.986 18.274 100.594 17.1712 99.8871 16.4623C99.1804 15.7534 98.081 15.3596 96.5104 15.3596C95.7251 15.3596 94.7828 15.3596 93.6834 15.4384C92.584 15.4384 91.4847 15.5171 90.3853 15.5959C89.2859 15.6747 88.265 15.6747 87.4012 15.7534V10.161C88.108 10.0822 88.9718 10.0034 89.8356 10.0034C90.7779 9.92465 91.6417 9.92465 92.6626 9.92465C93.6049 9.92465 94.5472 9.92465 95.411 9.92465C98.081 9.92465 100.28 10.2397 102.007 10.9486C103.735 11.6575 105.07 12.7603 105.934 14.1781C106.798 15.6747 107.269 17.5651 107.269 20.0068V35.9178H102.086V35.839Z" fill="#02569D"/>
<path d="M113.08 35.839V10.2397H118.263V21.2671H117.791C117.791 18.6678 118.106 16.4623 118.812 14.7295C119.519 12.9966 120.54 11.6575 121.875 10.7911C123.21 9.92466 124.937 9.45206 126.979 9.45206H127.293C130.356 9.45206 132.633 10.476 134.204 12.4452C135.774 14.4144 136.56 17.3288 136.56 21.2671V35.9966H130.042V20.637C130.042 19.0616 129.571 17.8014 128.707 16.7774C127.843 15.8322 126.587 15.2808 125.016 15.2808C123.445 15.2808 122.11 15.7534 121.09 16.7774C120.069 17.8014 119.598 19.1404 119.598 20.7945V35.839H113.08Z" fill="#02569D"/>
<path d="M152.422 46C151.166 46 149.909 45.9212 148.653 45.8425C147.396 45.7637 146.218 45.6062 145.119 45.4486V39.9349C146.218 40.0925 147.475 40.1712 148.731 40.25C149.988 40.3288 151.244 40.4075 152.344 40.4075C154.464 40.4075 156.113 40.1712 157.448 39.6199C158.783 39.1473 159.725 38.3596 160.353 37.2569C160.982 36.1541 161.296 34.8151 161.296 33.0822V28.0411L162.709 24.8116C162.631 27.1747 162.16 29.1438 161.217 30.798C160.353 32.4521 159.175 33.7123 157.605 34.5788C156.113 35.4452 154.385 35.9178 152.344 35.9178C150.616 35.9178 148.967 35.6027 147.553 34.8938C146.14 34.2637 144.883 33.3185 143.863 32.137C142.842 30.9555 142.056 29.6164 141.507 28.0411C140.957 26.4658 140.643 24.8117 140.643 23V21.976C140.643 20.1644 140.957 18.5103 141.507 16.9349C142.056 15.3596 142.92 14.0206 143.941 12.839C145.04 11.6575 146.297 10.7911 147.789 10.161C149.281 9.53083 150.93 9.21576 152.658 9.21576C154.778 9.21576 156.584 9.68836 158.155 10.5548C159.725 11.5 160.903 12.7603 161.845 14.4932C162.709 16.226 163.18 18.3527 163.337 20.8733L162.238 21.0308V10.2397H167.421V32.8459C167.421 35.9966 166.871 38.5171 165.85 40.4075C164.751 42.298 163.18 43.7158 160.903 44.661C158.704 45.5274 155.877 46 152.422 46ZM154.307 30.4041C155.563 30.4041 156.741 30.089 157.762 29.5377C158.783 28.9863 159.647 28.1199 160.275 27.0959C160.903 25.9932 161.217 24.7329 161.217 23.2363V21.5822C161.217 20.1644 160.903 18.9041 160.275 17.8801C159.647 16.8562 158.783 16.0685 157.762 15.5959C156.741 15.0445 155.563 14.8082 154.385 14.8082C152.972 14.8082 151.794 15.1233 150.694 15.7534C149.674 16.3836 148.81 17.3288 148.182 18.5103C147.553 19.6918 147.318 21.0308 147.318 22.6849C147.318 24.2603 147.632 25.5993 148.182 26.7808C148.81 27.9623 149.595 28.8288 150.694 29.4589C151.715 30.089 152.893 30.4041 154.307 30.4041Z" fill="#02569D"/>
<path d="M182.184 36.7055C179.2 36.7055 176.923 35.7603 175.352 33.7911C173.703 31.8219 172.918 28.9075 172.918 25.1267V10.1609H179.436V25.5993C179.436 27.1746 179.907 28.4349 180.771 29.3801C181.634 30.3253 182.812 30.7979 184.383 30.7979C185.953 30.7979 187.131 30.3253 188.074 29.3014C189.016 28.3562 189.487 27.0171 189.487 25.363V10.1609H196.005V35.839H190.822V24.9692H191.372C191.372 27.5685 191.058 29.6952 190.351 31.4281C189.723 33.1609 188.702 34.5 187.367 35.3664C186.032 36.2329 184.383 36.7055 182.42 36.7055H182.184Z" fill="#02569D"/>
<path d="M200.01 15.1233V10.2397H210.14V15.1233H200.01ZM205.978 7.16781C204.721 7.16781 203.701 6.85274 203.151 6.14384C202.523 5.43493 202.209 4.56849 202.209 3.54452C202.209 2.52055 202.523 1.65411 203.151 1.02397C203.779 0.393836 204.721 0 205.978 0C207.234 0 208.177 0.315068 208.805 1.02397C209.433 1.65411 209.669 2.52055 209.669 3.54452C209.669 4.56849 209.355 5.43493 208.805 6.14384C208.255 6.77397 207.313 7.16781 205.978 7.16781ZM203.622 35.839V10.2397H210.14V35.9178H203.622V35.839Z" fill="#02569D"/>
<path d="M213.909 15.1233V10.2397H234.483V15.1233H213.909ZM217.129 35.839V9.60957C217.129 6.69519 217.914 4.48971 219.563 3.0719C221.212 1.65409 223.568 0.94519 226.709 0.94519H229.929V5.98629H226.238C225.296 5.98629 224.51 6.22259 223.961 6.77396C223.411 7.32533 223.175 8.03423 223.175 8.97944V35.839H217.129Z" fill="#02569D"/>
<path d="M239.038 35.2877L230.793 10.2397H237.389L245.242 35.3664H239.038V35.2877ZM233.306 46V40.4075H238.096C239.038 40.4075 239.745 40.25 240.373 40.0137C241.001 39.7774 241.472 39.3836 241.944 38.9109C242.336 38.3596 242.65 37.6507 242.886 36.7842L249.796 10.2397H256.079L248.461 38.202C247.99 40.0925 247.283 41.6678 246.341 42.8493C245.399 44.0308 244.221 44.8185 242.807 45.2911C241.394 45.7637 239.588 46.0788 237.467 46.0788H233.306V46ZM241.315 35.2877V30.089H246.812V35.2877H241.315Z" fill="#02569D"/>
</g>
<defs>
<clipPath id="clip0_16_5">
<rect width="256" height="46" fill="white"/>
</clipPath>
</defs>
</svg>
