<svg width="56" height="17" viewBox="0 0 56 17" fill="none" xmlns="http://www.w3.org/2000/svg">
<path d="M41.6196 16.5411C36.6724 16.5411 34.238 12.7603 32.3534 9.76712C30.4687 6.85274 29.5264 5.5137 27.7202 5.5137C25.9141 5.5137 24.9718 6.77397 23.0871 9.76712C21.2025 12.7603 18.8466 16.5411 13.8209 16.5411C8.79509 16.5411 6.51779 12.7603 4.63313 9.76712C2.74847 6.85274 1.80614 5.5137 0 5.5137V0C4.94724 0 7.3816 3.78082 9.26626 6.77397C11.1509 9.68836 12.0933 11.0274 13.8994 11.0274C15.7055 11.0274 16.6479 9.76712 18.5325 6.77397C20.4172 3.78082 22.773 0 27.7988 0C32.746 0 35.1804 3.78082 37.065 6.77397C38.9497 9.68836 39.892 11.0274 41.6982 11.0274C43.5043 11.0274 44.4466 9.76712 46.3313 6.77397C48.216 3.78082 50.5718 0 55.5975 0V5.5137C53.7914 5.5137 52.8491 6.77397 50.9644 9.76712C49.0012 12.7603 46.6454 16.5411 41.6196 16.5411Z" fill="#02569D"/>
</svg>
